<?xml version="1.0" encoding="us-ascii" standalone="no"?><svg xmlns="http://www.w3.org/2000/svg" xmlns:xlink="http://www.w3.org/1999/xlink" contentStyleType="text/css" height="296px" preserveAspectRatio="none" style="width:427px;height:296px;background:#FFFFFF;" version="1.1" viewBox="0 0 427 296" width="427px" zoomAndPan="magnify"><defs/><g><text fill="#000000" font-family="sans-serif" font-size="14" font-weight="bold" lengthAdjust="spacing" textLength="100" x="162" y="36.2399">allocate_slab()</text><ellipse cx="213.5" cy="61.2719" fill="#222222" rx="10" ry="10" style="stroke:#222222;stroke-width:1.0;"/><rect fill="#F1F1F1" height="37.3761" rx="12.5" ry="12.5" style="stroke:#181818;stroke-width:0.5;" width="175" x="126" y="91.2719"/><text fill="#000000" font-family="sans-serif" font-size="12" lengthAdjust="spacing" textLength="155" x="136" y="115.192">flags &amp;= gfp_allowed_mask</text><rect fill="#F1F1F1" height="37.3761" rx="12.5" ry="12.5" style="stroke:#181818;stroke-width:0.5;" width="133" x="147" y="148.648"/><text fill="#000000" font-family="sans-serif" font-size="12" lengthAdjust="spacing" textLength="113" x="157" y="172.5681">flags |= s-&gt;allocflags</text><rect fill="#F1F1F1" height="37.3761" rx="12.5" ry="12.5" style="stroke:#181818;stroke-width:0.5;" width="405" x="11" y="206.0242"/><text fill="#000000" font-family="sans-serif" font-size="12" lengthAdjust="spacing" textLength="101" x="21" y="229.9443">alloc_gfp = (flags |</text><text fill="#000000" font-family="sans-serif" font-size="12" lengthAdjust="spacing" text-decoration="underline" textLength="89" x="125" y="229.9443">GFP_NOWARN |</text><text fill="#000000" font-family="sans-serif" font-size="12" lengthAdjust="spacing" textLength="189" x="217" y="229.9443">GFP_NORETRY) &amp; __GFP_NOFAIL</text><ellipse cx="213.5" cy="274.4003" fill="none" rx="11" ry="11" style="stroke:#222222;stroke-width:1.0;"/><ellipse cx="213.5" cy="274.4003" fill="#222222" rx="6" ry="6" style="stroke:#111111;stroke-width:1.0;"/><line style="stroke:#181818;stroke-width:1.0;" x1="213.5" x2="213.5" y1="71.2719" y2="91.2719"/><polygon fill="#181818" points="209.5,81.2719,213.5,91.2719,217.5,81.2719,213.5,85.2719" style="stroke:#181818;stroke-width:1.0;"/><line style="stroke:#181818;stroke-width:1.0;" x1="213.5" x2="213.5" y1="128.648" y2="148.648"/><polygon fill="#181818" points="209.5,138.648,213.5,148.648,217.5,138.648,213.5,142.648" style="stroke:#181818;stroke-width:1.0;"/><line style="stroke:#181818;stroke-width:1.0;" x1="213.5" x2="213.5" y1="186.0242" y2="206.0242"/><polygon fill="#181818" points="209.5,196.0242,213.5,206.0242,217.5,196.0242,213.5,200.0242" style="stroke:#181818;stroke-width:1.0;"/><line style="stroke:#181818;stroke-width:1.0;" x1="213.5" x2="213.5" y1="243.4003" y2="263.4003"/><polygon fill="#181818" points="209.5,253.4003,213.5,263.4003,217.5,253.4003,213.5,257.4003" style="stroke:#181818;stroke-width:1.0;"/><!--SRC=[AyaioKbLICp9oKzEB4cDByv9JDBGvE8gBaaiAk6oIij9J2zMKBDLI4yhY0SfAazDYSzDBCwsXidLs2eKwzg1zOC5W19WJZnGXuAjWWPKbK9ylBjRGBoVVxXZa1yIDyWr92XIKq5DeGucukRewMCDSa1-0HS0]--></g></svg>