<?xml version="1.0" encoding="us-ascii" standalone="no"?><svg xmlns="http://www.w3.org/2000/svg" xmlns:xlink="http://www.w3.org/1999/xlink" contentStyleType="text/css" height="296px" preserveAspectRatio="none" style="width:995px;height:296px;background:#FFFFFF;" version="1.1" viewBox="0 0 995 296" width="995px" zoomAndPan="magnify"><defs/><g><!--cluster KSM Mapping--><g id="cluster_KSM Mapping"><path d="M8.5,8.26 L143.5,8.26 A3.75,3.75 0 0 1 146,10.76 L153,43.22 L985.5,43.22 A2.5,2.5 0 0 1 988,45.72 L988,286.76 A2.5,2.5 0 0 1 985.5,289.26 L8.5,289.26 A2.5,2.5 0 0 1 6,286.76 L6,10.76 A2.5,2.5 0 0 1 8.5,8.26 " fill="#ADD8E6" style="stroke:#000000;stroke-width:0.0;"/><line style="stroke:#000000;stroke-width:0.0;" x1="6" x2="153" y1="43.22" y2="43.22"/><text fill="#000000" font-family="sans-serif" font-size="20" font-weight="bold" lengthAdjust="spacing" textLength="134" x="10" y="33.46">KSM Mapping</text></g><!--entity kp1--><g id="elem_kp1"><rect fill="#ADFF2F" height="48.96" rx="2.5" ry="2.5" style="stroke:#181818;stroke-width:1.0;" width="108" x="22" y="55.76"/><text fill="#000000" font-family="sans-serif" font-size="20" lengthAdjust="spacing" textLength="88" x="32" y="88.96">ksm page</text></g><!--entity av1--><g id="elem_av1"><rect fill="#FFFFE0" height="48.96" rx="2.5" ry="2.5" style="stroke:#181818;stroke-width:1.0;" width="111" x="619" y="55.76"/><text fill="#000000" font-family="sans-serif" font-size="20" lengthAdjust="spacing" textLength="91" x="629" y="88.96">anon vma</text></g><!--entity av2--><g id="elem_av2"><rect fill="#FFFFE0" height="48.96" rx="2.5" ry="2.5" style="stroke:#181818;stroke-width:1.0;" width="111" x="619" y="139.76"/><text fill="#000000" font-family="sans-serif" font-size="20" lengthAdjust="spacing" textLength="91" x="629" y="172.96">anon vma</text></g><!--entity av3--><g id="elem_av3"><rect fill="#FFFFE0" height="48.96" rx="2.5" ry="2.5" style="stroke:#181818;stroke-width:1.0;" width="111" x="619" y="223.76"/><text fill="#000000" font-family="sans-serif" font-size="20" lengthAdjust="spacing" textLength="91" x="629" y="256.96">anon vma</text></g><!--entity v1--><g id="elem_v1"><rect fill="#FFFFE0" height="48.96" rx="2.5" ry="2.5" style="stroke:#181818;stroke-width:1.0;" width="60" x="912" y="55.76"/><text fill="#000000" font-family="sans-serif" font-size="20" lengthAdjust="spacing" textLength="40" x="922" y="88.96">vma</text></g><!--entity v2--><g id="elem_v2"><rect fill="#FFFFE0" height="48.96" rx="2.5" ry="2.5" style="stroke:#181818;stroke-width:1.0;" width="60" x="912" y="139.76"/><text fill="#000000" font-family="sans-serif" font-size="20" lengthAdjust="spacing" textLength="40" x="922" y="172.96">vma</text></g><!--entity v3--><g id="elem_v3"><rect fill="#FFFFE0" height="48.96" rx="2.5" ry="2.5" style="stroke:#181818;stroke-width:1.0;" width="60" x="912" y="223.76"/><text fill="#000000" font-family="sans-serif" font-size="20" lengthAdjust="spacing" textLength="40" x="922" y="256.96">vma</text></g><!--entity r1--><g id="elem_r1"><rect fill="#FFFFE0" height="48.96" rx="2.5" ry="2.5" style="stroke:#181818;stroke-width:1.0;" width="125" x="312" y="55.76"/><text fill="#000000" font-family="sans-serif" font-size="20" lengthAdjust="spacing" textLength="105" x="322" y="88.96">rmap_item</text></g><!--entity r2--><g id="elem_r2"><rect fill="#FFFFE0" height="48.96" rx="2.5" ry="2.5" style="stroke:#181818;stroke-width:1.0;" width="125" x="312" y="139.76"/><text fill="#000000" font-family="sans-serif" font-size="20" lengthAdjust="spacing" textLength="105" x="322" y="172.96">rmap_item</text></g><!--entity r3--><g id="elem_r3"><rect fill="#FFFFE0" height="48.96" rx="2.5" ry="2.5" style="stroke:#181818;stroke-width:1.0;" width="125" x="312" y="223.76"/><text fill="#000000" font-family="sans-serif" font-size="20" lengthAdjust="spacing" textLength="105" x="322" y="256.96">rmap_item</text></g><!--link kp1 to r1--><g id="link_kp1_r1"><path d="M130.01,80.26 C179.47,80.26 253.45,80.26 306.88,80.26 " fill="none" id="kp1-to-r1" style="stroke:#181818;stroke-width:1.0;"/><polygon fill="#181818" points="311.98,80.26,302.98,76.26,306.98,80.26,302.98,84.26,311.98,80.26" style="stroke:#181818;stroke-width:1.0;"/></g><!--link r2 to r1--><g id="link_r2_r1"><path d="M374.5,139.65 C374.5,128.05 374.5,116.45 374.5,104.85 " fill="none" id="r2-r1" style="stroke:#181818;stroke-width:1.0;stroke-dasharray:7.0,7.0;"/></g><!--link r3 to r2--><g id="link_r3_r2"><path d="M374.5,223.65 C374.5,212.05 374.5,200.45 374.5,188.85 " fill="none" id="r3-r2" style="stroke:#181818;stroke-width:1.0;stroke-dasharray:7.0,7.0;"/></g><!--link r1 to av1--><g id="link_r1_av1"><path d="M437.25,80.26 C489,80.26 562.44,80.26 613.65,80.26 " fill="none" id="r1-to-av1" style="stroke:#181818;stroke-width:1.0;"/><polygon fill="#181818" points="618.85,80.26,609.85,76.26,613.85,80.26,609.85,84.26,618.85,80.26" style="stroke:#181818;stroke-width:1.0;"/></g><!--link r2 to av2--><g id="link_r2_av2"><path d="M437.25,164.26 C489,164.26 562.44,164.26 613.65,164.26 " fill="none" id="r2-to-av2" style="stroke:#181818;stroke-width:1.0;"/><polygon fill="#181818" points="618.85,164.26,609.85,160.26,613.85,164.26,609.85,168.26,618.85,164.26" style="stroke:#181818;stroke-width:1.0;"/></g><!--link r3 to av3--><g id="link_r3_av3"><path d="M437.25,248.26 C489,248.26 562.44,248.26 613.65,248.26 " fill="none" id="r3-to-av3" style="stroke:#181818;stroke-width:1.0;"/><polygon fill="#181818" points="618.85,248.26,609.85,244.26,613.85,248.26,609.85,252.26,618.85,248.26" style="stroke:#181818;stroke-width:1.0;"/></g><!--link av1 to v1--><g id="link_av1_v1"><path d="M730.19,80.26 C783.25,80.26 862.11,80.26 906.82,80.26 " fill="none" id="av1-to-v1" style="stroke:#181818;stroke-width:1.0;"/><polygon fill="#181818" points="911.83,80.26,902.83,76.26,906.83,80.26,902.83,84.26,911.83,80.26" style="stroke:#181818;stroke-width:1.0;"/></g><!--link av2 to v2--><g id="link_av2_v2"><path d="M730.19,164.26 C783.25,164.26 862.11,164.26 906.82,164.26 " fill="none" id="av2-to-v2" style="stroke:#181818;stroke-width:1.0;"/><polygon fill="#181818" points="911.83,164.26,902.83,160.26,906.83,164.26,902.83,168.26,911.83,164.26" style="stroke:#181818;stroke-width:1.0;"/></g><!--link av3 to v3--><g id="link_av3_v3"><path d="M730.19,248.26 C783.25,248.26 862.11,248.26 906.82,248.26 " fill="none" id="av3-to-v3" style="stroke:#181818;stroke-width:1.0;"/><polygon fill="#181818" points="911.83,248.26,902.83,244.26,906.83,248.26,902.83,252.26,911.83,248.26" style="stroke:#181818;stroke-width:1.0;"/></g><!--SRC=[bP91IyCm68Rl_HKVtTcvf7SF4_IW0w5Uf0pvw3wxq3O9QPoexB-Rj4qcGsQRK_FoF6- -adGbDWJicYKDlLcm2eoezXPsmb1fXP99LmkfqM0BjwhLIfAqy9s0MtTAsbny4V1LlryhioFpl1TbBQdhW2N7l-pSVheZVJtAgg5Vo1EMDLOqiNxbwXCzAkb3le4DQYrabSBYqV_4kdaFNMKSFQsx5hHJKi0EQirWSM-8v0irZVeuXr4g2OSMUnWFR6oU1FCvS7OH3jm_0qICJyCk7sfQrA_2Kjl3Xis1-HpuR8oUBjpDRA_SkYaCsmwH-rZwLxei30yHZr5seWRFNTU92b4KinW5qVD35aNFZn6FKJ2zU4n-0000]--></g></svg>