<?xml version="1.0" encoding="us-ascii" standalone="no"?><svg xmlns="http://www.w3.org/2000/svg" xmlns:xlink="http://www.w3.org/1999/xlink" contentStyleType="text/css" height="374px" preserveAspectRatio="none" style="width:1666px;height:374px;background:#FFFFFF;" version="1.1" viewBox="0 0 1666 374" width="1666px" zoomAndPan="magnify"><defs/><g><!--cluster p1--><g id="cluster_p1"><path d="M8.5,8.26 L279.5,8.26 A3.75,3.75 0 0 1 282,10.76 L289,43.22 L1656.5,43.22 A2.5,2.5 0 0 1 1659,45.72 L1659,364.76 A2.5,2.5 0 0 1 1656.5,367.26 L8.5,367.26 A2.5,2.5 0 0 1 6,364.76 L6,10.76 A2.5,2.5 0 0 1 8.5,8.26 " fill="none" style="stroke:#000000;stroke-width:1.0;"/><line style="stroke:#000000;stroke-width:1.0;" x1="6" x2="289" y1="43.22" y2="43.22"/><text fill="#000000" font-family="sans-serif" font-size="20" font-weight="bold" lengthAdjust="spacing" textLength="270" x="10" y="33.46">3) write the first anon page</text></g><!--entity c1--><g id="elem_c1"><rect fill="none" height="295.5997" rx="2.5" ry="2.5" style="stroke:#181818;stroke-width:0.0;" width="463" x="22" y="55.26"/><ellipse cx="37.5" cy="79.72" fill="#000000" rx="2.5" ry="2.5" style="stroke:#000000;stroke-width:0.0;"/><text fill="#000000" font-family="sans-serif" font-size="20" lengthAdjust="spacing" textLength="149" x="44" y="81.46">do_page_fault()</text><rect fill="#000000" height="3.5" style="stroke:#000000;stroke-width:0.0;" width="3.5" x="41" y="106.1799"/><text fill="#000000" font-family="sans-serif" font-size="20" lengthAdjust="spacing" textLength="171" x="48" y="110.4199">__do_page_fault()</text><rect fill="#000000" height="3.5" style="stroke:#000000;stroke-width:0.0;" width="3.5" x="49" y="135.1399"/><text fill="#000000" font-family="sans-serif" font-size="20" lengthAdjust="spacing" textLength="182" x="56" y="139.3799">handle_mm_fault()</text><rect fill="#000000" height="3.5" style="stroke:#000000;stroke-width:0.0;" width="3.5" x="57" y="164.0999"/><text fill="#000000" font-family="sans-serif" font-size="20" lengthAdjust="spacing" textLength="204" x="64" y="168.3399">__handle_mm_fault()</text><rect fill="#000000" height="3.5" style="stroke:#000000;stroke-width:0.0;" width="3.5" x="65" y="193.0599"/><text fill="#000000" font-family="sans-serif" font-size="20" lengthAdjust="spacing" textLength="175" x="72" y="197.2999">handle_pte_fault()</text><rect fill="#000000" height="3.5" style="stroke:#000000;stroke-width:0.0;" width="3.5" x="73" y="222.0198"/><text fill="#000000" font-family="sans-serif" font-size="20" font-weight="bold" lengthAdjust="spacing" textLength="230" x="80" y="226.2598">do_anonymous_page()</text><rect fill="#000000" height="3.5" style="stroke:#000000;stroke-width:0.0;" width="3.5" x="81" y="250.9798"/><text fill="#000000" font-family="sans-serif" font-size="20" lengthAdjust="spacing" textLength="196" x="88" y="255.2198">anon_vma_prepare()</text><rect fill="#000000" height="3.5" style="stroke:#000000;stroke-width:0.0;" width="3.5" x="81" y="279.9398"/><text fill="#000000" font-family="sans-serif" font-size="20" lengthAdjust="spacing" textLength="374" x="88" y="284.1798">alloc_zeroed_user_highpage_movable()</text><rect fill="#000000" height="3.5" style="stroke:#000000;stroke-width:0.0;" width="3.5" x="81" y="308.8997"/><text fill="#000000" font-family="sans-serif" font-size="20" lengthAdjust="spacing" textLength="274" x="88" y="313.1398">page_add_new_anon_rmap()</text><rect fill="#000000" height="3.5" style="stroke:#000000;stroke-width:0.0;" width="3.5" x="81" y="337.8597"/><text fill="#000000" font-family="sans-serif" font-size="20" lengthAdjust="spacing" textLength="387" x="88" y="342.0997">lru_cache_add_inactive_or_unevictable()</text></g><!--entity av--><g id="elem_av"><rect fill="#90EE90" height="48.96" rx="2.5" ry="2.5" style="stroke:#181818;stroke-width:1.0;" width="148" x="545" y="178.76"/><text fill="#000000" font-family="sans-serif" font-size="20" lengthAdjust="spacing" textLength="24" x="619" y="211.96">AV</text></g><!--entity avc--><g id="elem_avc"><rect fill="#90EE90" height="48.96" rx="2.5" ry="2.5" style="stroke:#181818;stroke-width:1.0;" width="180" x="753" y="208.76"/><text fill="#000000" font-family="sans-serif" font-size="20" lengthAdjust="spacing" textLength="37" x="827" y="241.96">AVC</text></g><!--entity vma--><g id="elem_vma"><rect fill="#90EE90" height="48.96" rx="2.5" ry="2.5" style="stroke:#181818;stroke-width:1.0;" width="180" x="993" y="208.76"/><text fill="#000000" font-family="sans-serif" font-size="20" lengthAdjust="spacing" textLength="40" x="1067" y="241.96">VMA</text></g><!--entity page--><g id="elem_page"><rect fill="#F1F1F1" height="48.96" rx="2.5" ry="2.5" style="stroke:#181818;stroke-width:1.0;" width="65" x="1233" y="178.76"/><text fill="#000000" font-family="sans-serif" font-size="20" lengthAdjust="spacing" textLength="45" x="1243" y="211.96">page</text></g><!--entity page table--><g id="elem_page table"><rect fill="#F1F1F1" height="48.96" rx="2.5" ry="2.5" style="stroke:#181818;stroke-width:1.0;" width="117" x="1358" y="178.76"/><text fill="#000000" font-family="sans-serif" font-size="20" lengthAdjust="spacing" textLength="97" x="1368" y="211.96">page table</text></g><!--entity new page--><g id="elem_new page"><rect fill="#F1F1F1" height="48.96" rx="2.5" ry="2.5" style="stroke:#181818;stroke-width:1.0;" width="108" x="1535" y="178.76"/><text fill="#000000" font-family="sans-serif" font-size="20" lengthAdjust="spacing" textLength="88" x="1545" y="211.96">new page</text></g><!--link c1 to av--><!--reverse link av to avc--><g id="link_av_avc"><path d="M698.71,213.9 C716.26,216.27 734.99,218.8 752.92,221.22 " fill="none" id="av-backto-avc" style="stroke:#181818;stroke-width:1.0;"/><polygon fill="#181818" points="693.31,213.17,701.6917,218.3418,698.2648,213.8411,702.7654,210.4142,693.31,213.17" style="stroke:#181818;stroke-width:1.0;"/></g><!--link avc to vma--><g id="link_avc_vma"><path d="M933.3,233.26 C951.14,233.26 969.94,233.26 987.94,233.26 " fill="none" id="avc-to-vma" style="stroke:#181818;stroke-width:1.0;"/><polygon fill="#181818" points="992.99,233.26,983.99,229.26,987.99,233.26,983.99,237.26,992.99,233.26" style="stroke:#181818;stroke-width:1.0;"/></g><!--link vma to page--><g id="link_vma_page"><path d="M1173.19,218.44 C1192.34,215.25 1211.56,212.06 1227.39,209.43 " fill="none" id="vma-to-page" style="stroke:#181818;stroke-width:1.0;"/><polygon fill="#181818" points="1232.62,208.56,1223.0883,206.0806,1227.6869,209.375,1224.3924,213.9736,1232.62,208.56" style="stroke:#181818;stroke-width:1.0;"/></g><!--link page to page table--><g id="link_page_page table"><path d="M1298.1,203.26 C1313.95,203.26 1333.73,203.26 1352.51,203.26 " fill="none" id="page-to-page table" style="stroke:#181818;stroke-width:1.0;"/><polygon fill="#181818" points="1357.78,203.26,1348.78,199.26,1352.78,203.26,1348.78,207.26,1357.78,203.26" style="stroke:#181818;stroke-width:1.0;"/></g><!--link page table to new page--><g id="link_page table_new page"><path d="M1475.22,203.26 C1492.73,203.26 1511.98,203.26 1529.54,203.26 " fill="none" id="page table-to-new page" style="stroke:#181818;stroke-width:1.0;"/><polygon fill="#181818" points="1534.93,203.26,1525.93,199.26,1529.93,203.26,1525.93,207.26,1534.93,203.26" style="stroke:#181818;stroke-width:1.0;"/></g><!--link page to av--><g id="link_page_av"><path d="M1232.84,198.07 C1215.27,195.46 1192.98,192.56 1173,191.26 C986.73,179.1 939.48,182.86 753,191.26 C735.22,192.06 716.14,193.46 698.14,195.03 " fill="none" id="page-to-av" style="stroke:#181818;stroke-width:1.0;stroke-dasharray:7.0,7.0;"/><polygon fill="#181818" points="693.09,195.47,702.4086,198.658,698.0704,195.0276,701.7008,190.6894,693.09,195.47" style="stroke:#181818;stroke-width:1.0;"/></g><!--SRC=[dLBTQzim47_tNt6aBusXeTvWJwEG1hQNhHGs-f86SPKkiOWicRFiq8xzxvDaDtK-naRrO5c_ZplTwGojFNW7h3Ub1wMPfDVEPirMsnePArYugdQMhF_Xdmr15A3T63edWLyPXFN51RL-8VXmdSwtZXNnprBBhQMcWIBxdOtizoYtkA7tcHV8wZ-TruVEE-TFSXQV3ZLpPhSRirazN7RoSGexrY64BmdMcXiFQ9s5Eh0Jm0RgOeWkunLb0HUUqJOXSEpKCb4vA2UYGwonDVvosgCv276UoA54gmo9gZfcekdlvDvOUpebyx25XB60vygrJKfzEStpaIHFzOckGb4pnJ8E8WJQ62V52x4Z9Tg6M9HXgb8HbUlmoHmR4eLA2Kkxb5jmXVMHo70h9CgoLsgBOK0x4ev5QwdJOHhV0g-olk7xUPmy-aS_VuZVz2ROmSMtEEfVcSYU5oz6Qlal-SFt-LuUEdCgBwwKszbbgPKYkxh2Bi7OVKvuECi1a3rm4w8a9Em3ienzMYMm_ntZaEeViGFmgWcjXMF_R3QxMMAt2hF-1m00]--></g></svg>