<?xml version="1.0" encoding="us-ascii" standalone="no"?><svg xmlns="http://www.w3.org/2000/svg" xmlns:xlink="http://www.w3.org/1999/xlink" contentStyleType="text/css" height="258px" preserveAspectRatio="none" style="width:1648px;height:258px;background:#FFFFFF;" version="1.1" viewBox="0 0 1648 258" width="1648px" zoomAndPan="magnify"><defs/><g><!--cluster p1--><g id="cluster_p1"><path d="M8.5,8.26 L273.5,8.26 A3.75,3.75 0 0 1 276,10.76 L283,43.22 L1638.5,43.22 A2.5,2.5 0 0 1 1641,45.72 L1641,248.76 A2.5,2.5 0 0 1 1638.5,251.26 L8.5,251.26 A2.5,2.5 0 0 1 6,248.76 L6,10.76 A2.5,2.5 0 0 1 8.5,8.26 " fill="none" style="stroke:#000000;stroke-width:1.0;"/><line style="stroke:#000000;stroke-width:1.0;" x1="6" x2="283" y1="43.22" y2="43.22"/><text fill="#000000" font-family="sans-serif" font-size="20" font-weight="bold" lengthAdjust="spacing" textLength="264" x="10" y="33.46">2) read the first anon page</text></g><!--entity c1--><g id="elem_c1"><rect fill="none" height="179.7598" rx="2.5" ry="2.5" style="stroke:#181818;stroke-width:0.0;" width="298" x="22" y="55.26"/><ellipse cx="37.5" cy="79.72" fill="#000000" rx="2.5" ry="2.5" style="stroke:#000000;stroke-width:0.0;"/><text fill="#000000" font-family="sans-serif" font-size="20" lengthAdjust="spacing" textLength="149" x="44" y="81.46">do_page_fault()</text><rect fill="#000000" height="3.5" style="stroke:#000000;stroke-width:0.0;" width="3.5" x="41" y="106.1799"/><text fill="#000000" font-family="sans-serif" font-size="20" lengthAdjust="spacing" textLength="171" x="48" y="110.4199">__do_page_fault()</text><rect fill="#000000" height="3.5" style="stroke:#000000;stroke-width:0.0;" width="3.5" x="49" y="135.1399"/><text fill="#000000" font-family="sans-serif" font-size="20" lengthAdjust="spacing" textLength="182" x="56" y="139.3799">handle_mm_fault()</text><rect fill="#000000" height="3.5" style="stroke:#000000;stroke-width:0.0;" width="3.5" x="57" y="164.0999"/><text fill="#000000" font-family="sans-serif" font-size="20" lengthAdjust="spacing" textLength="204" x="64" y="168.3399">__handle_mm_fault()</text><rect fill="#000000" height="3.5" style="stroke:#000000;stroke-width:0.0;" width="3.5" x="65" y="193.0599"/><text fill="#000000" font-family="sans-serif" font-size="20" lengthAdjust="spacing" textLength="175" x="72" y="197.2999">handle_pte_fault()</text><rect fill="#000000" height="3.5" style="stroke:#000000;stroke-width:0.0;" width="3.5" x="73" y="222.0198"/><text fill="#000000" font-family="sans-serif" font-size="20" font-weight="bold" lengthAdjust="spacing" textLength="230" x="80" y="226.2598">do_anonymous_page()</text></g><!--entity mm_struct--><!--entity vma--><g id="elem_vma"><rect fill="#90EE90" height="114.8799" rx="2.5" ry="2.5" style="stroke:#181818;stroke-width:1.0;" width="199" x="670" y="87.76"/><text fill="#000000" font-family="sans-serif" font-size="20" lengthAdjust="spacing" textLength="40" x="744" y="120.96">VMA</text><line style="stroke:#181818;stroke-width:1.0;" x1="671" x2="868" y1="126.72" y2="126.72"/><ellipse cx="685.5" cy="152.1799" fill="#000000" rx="2.5" ry="2.5" style="stroke:#000000;stroke-width:0.0;"/><text fill="#000000" font-family="sans-serif" font-size="20" lengthAdjust="spacing" textLength="167" x="692" y="153.9199">anon_vma = NULL</text><text fill="#000000" font-family="sans-serif" font-size="20" lengthAdjust="spacing" textLength="4" x="680" y="182.8799">&#160;</text></g><!--entity page--><g id="elem_page"><rect fill="#F1F1F1" height="48.96" rx="2.5" ry="2.5" style="stroke:#181818;stroke-width:1.0;" width="65" x="1040" y="120.76"/><text fill="#000000" font-family="sans-serif" font-size="20" lengthAdjust="spacing" textLength="45" x="1050" y="153.96">page</text></g><!--entity page table--><g id="elem_page table"><rect fill="#F1F1F1" height="48.96" rx="2.5" ry="2.5" style="stroke:#181818;stroke-width:1.0;" width="117" x="1337" y="120.76"/><text fill="#000000" font-family="sans-serif" font-size="20" lengthAdjust="spacing" textLength="97" x="1347" y="153.96">page table</text></g><!--entity zero page--><g id="elem_zero page"><rect fill="#F1F1F1" height="48.96" rx="2.5" ry="2.5" style="stroke:#181818;stroke-width:1.0;" width="110" x="1515" y="120.76"/><text fill="#000000" font-family="sans-serif" font-size="20" lengthAdjust="spacing" textLength="90" x="1525" y="153.96">zero page</text></g><!--link c1 to mm_struct--><!--reverse link mm_struct to vma--><!--reverse link vma to page--><g id="link_vma_page"><path d="M874.29,145.26 C932.36,145.26 1000.74,145.26 1039.82,145.26 " fill="none" id="vma-backto-page" style="stroke:#181818;stroke-width:1.0;"/><polygon fill="#181818" points="869.06,145.26,878.06,149.26,874.06,145.26,878.06,141.26,869.06,145.26" style="stroke:#181818;stroke-width:1.0;"/><text fill="#000000" font-family="sans-serif" font-size="16" lengthAdjust="spacing" textLength="109" x="900" y="139.82">1st fault (read)</text></g><!--reverse link page to page table--><g id="link_page_page table"><path d="M1110.37,145.26 C1165.86,145.26 1271.32,145.26 1336.98,145.26 " fill="none" id="page-backto-page table" style="stroke:#181818;stroke-width:1.0;"/><polygon fill="#181818" points="1105.16,145.26,1114.16,149.26,1110.16,145.26,1114.16,141.26,1105.16,145.26" style="stroke:#181818;stroke-width:1.0;"/><text fill="#000000" font-family="sans-serif" font-size="16" lengthAdjust="spacing" textLength="74" x="1184" y="116.82">zero page</text><text fill="#000000" font-family="sans-serif" font-size="16" lengthAdjust="spacing" textLength="170" x="1136" y="139.9881">write-protect mapping</text></g><!--reverse link page table to zero page--><g id="link_page table_zero page"><path d="M1459.49,145.26 C1477.6,145.26 1497.19,145.26 1514.73,145.26 " fill="none" id="page table-backto-zero page" style="stroke:#181818;stroke-width:1.0;"/><polygon fill="#181818" points="1454.42,145.26,1463.42,149.26,1459.42,145.26,1463.42,141.26,1454.42,145.26" style="stroke:#181818;stroke-width:1.0;"/></g><!--SRC=[dL9BIyGm4BxtLmpgORTGi1uyY1vKqCigWe_BRYbZCjk6RPEGphge-DzDiclj-W1nBc7oVT-y6vepi06dgff1AaU2bT59jr3QeiCMparhZIRDj_pS40G2wggXdoZmce2t2-FPweNWO3_wPyP9SdUr4WjDNGTvyfOCv3Se5bZH_yJdwEGVbVlRocl3ttBcXzkSK-VCQeWcTbFipi7Opm8bS4qmLwvZG6qqM0_k07PWyqrm4IeKEUooGztvk65GqmYb84qP5EKSbmsFnklV5ChoPo256hLig6pRhqWG_GxsGilq7KpzunE61fvRi-nYwj4uJIEbIE8pzM4xTal11UmnLldwM_JBVseHTYVXa2uTaTxq66p6CtwuEktzp5llf75mPL2VmFNzP98CiueyasQbfxMIadIH3QhuMjLnbarzb0AE0AMCL_q8x4k9H1-0XdL7Qf24NeCczokCau5HMEnwF6lqWmQCZqqalv0pSTSplNAAARFEdvDWQD5QfQjFyKOJGlIYmb_PEm00]--></g></svg>