<?xml version="1.0" encoding="us-ascii" standalone="no"?><svg xmlns="http://www.w3.org/2000/svg" xmlns:xlink="http://www.w3.org/1999/xlink" contentStyleType="text/css" height="288px" preserveAspectRatio="none" style="width:1120px;height:288px;background:#FFFFFF;" version="1.1" viewBox="0 0 1120 288" width="1120px" zoomAndPan="magnify"><defs/><g><!--cluster p1--><g id="cluster_p1"><path d="M8.5,8.26 L290.5,8.26 A3.75,3.75 0 0 1 293,10.76 L300,43.22 L1110.5,43.22 A2.5,2.5 0 0 1 1113,45.72 L1113,278.76 A2.5,2.5 0 0 1 1110.5,281.26 L8.5,281.26 A2.5,2.5 0 0 1 6,278.76 L6,10.76 A2.5,2.5 0 0 1 8.5,8.26 " fill="none" style="stroke:#000000;stroke-width:1.0;"/><line style="stroke:#000000;stroke-width:1.0;" x1="6" x2="300" y1="43.22" y2="43.22"/><text fill="#000000" font-family="sans-serif" font-size="20" font-weight="bold" lengthAdjust="spacing" textLength="281" x="10" y="33.46">1) malloc() allocate memory</text></g><!--cluster mm_struct--><g id="cluster_mm_struct"><rect fill="none" height="148" rx="2.5" ry="2.5" style="stroke:#181818;stroke-width:1.0;" width="137" x="307" y="71.26"/><text fill="#000000" font-family="sans-serif" font-size="20" font-weight="bold" lengthAdjust="spacing" textLength="108" x="321.5" y="96.46">mm_struct</text></g><!--entity c1--><g id="elem_c1"><rect fill="none" height="208.7198" rx="2.5" ry="2.5" style="stroke:#181818;stroke-width:0.0;" width="230" x="22" y="55.76"/><ellipse cx="37.5" cy="80.22" fill="#000000" rx="2.5" ry="2.5" style="stroke:#000000;stroke-width:0.0;"/><text fill="#000000" font-family="sans-serif" font-size="20" lengthAdjust="spacing" textLength="114" x="44" y="81.96">sys_mmap()</text><rect fill="#000000" height="3.5" style="stroke:#000000;stroke-width:0.0;" width="3.5" x="41" y="106.6799"/><text fill="#000000" font-family="sans-serif" font-size="20" lengthAdjust="spacing" textLength="185" x="48" y="110.9199">ksys_mmap_pgoff()</text><rect fill="#000000" height="3.5" style="stroke:#000000;stroke-width:0.0;" width="3.5" x="49" y="135.6399"/><text fill="#000000" font-family="sans-serif" font-size="20" lengthAdjust="spacing" textLength="175" x="56" y="139.8799">vm_mmap_pgoff()</text><rect fill="#000000" height="3.5" style="stroke:#000000;stroke-width:0.0;" width="3.5" x="57" y="164.5999"/><text fill="#000000" font-family="sans-serif" font-size="20" lengthAdjust="spacing" textLength="110" x="64" y="168.8399">do_mmap()</text><rect fill="#000000" height="3.5" style="stroke:#000000;stroke-width:0.0;" width="3.5" x="65" y="193.5599"/><text fill="#000000" font-family="sans-serif" font-size="20" lengthAdjust="spacing" textLength="146" x="72" y="197.7999">mmap_region()</text><rect fill="#000000" height="3.5" style="stroke:#000000;stroke-width:0.0;" width="3.5" x="73" y="222.5198"/><text fill="#000000" font-family="sans-serif" font-size="20" font-weight="bold" lengthAdjust="spacing" textLength="162" x="80" y="226.7598">vm_area_alloc()</text><rect fill="#000000" height="3.5" style="stroke:#000000;stroke-width:0.0;" width="3.5" x="81" y="251.4798"/><text fill="#000000" font-family="sans-serif" font-size="20" lengthAdjust="spacing" textLength="100" x="88" y="255.7198">vma_link()</text></g><!--entity vma--><g id="elem_vma"><rect fill="#90EE90" height="114.8799" rx="2.5" ry="2.5" style="stroke:#181818;stroke-width:1.0;" width="199" x="665" y="93.76"/><text fill="#000000" font-family="sans-serif" font-size="20" lengthAdjust="spacing" textLength="40" x="739" y="126.96">VMA</text><line style="stroke:#181818;stroke-width:1.0;" x1="666" x2="863" y1="132.72" y2="132.72"/><ellipse cx="680.5" cy="158.1799" fill="#000000" rx="2.5" ry="2.5" style="stroke:#000000;stroke-width:0.0;"/><text fill="#000000" font-family="sans-serif" font-size="20" lengthAdjust="spacing" textLength="167" x="687" y="159.9199">anon_vma = NULL</text><ellipse cx="680.5" cy="187.1399" fill="#000000" rx="2.5" ry="2.5" style="stroke:#000000;stroke-width:0.0;"/><text fill="#000000" font-family="sans-serif" font-size="20" lengthAdjust="spacing" textLength="142" x="687" y="188.8799">vm_ops = NULL</text></g><g id="elem_GMN7"><path d="M925,99.76 L925,147.26 L864.24,151.26 L925,155.26 L925,202.4322 A0,0 0 0 0 925,202.4322 L1097,202.4322 A0,0 0 0 0 1097,202.4322 L1097,109.76 L1087,99.76 L925,99.76 A0,0 0 0 0 925,99.76 " fill="#FEFFDD" style="stroke:#181818;stroke-width:0.5;"/><path d="M1087,99.76 L1087,109.76 L1097,109.76 L1087,99.76 " fill="#FEFFDD" style="stroke:#181818;stroke-width:0.5;"/><text fill="#000000" font-family="sans-serif" font-size="16" lengthAdjust="spacing" textLength="151" x="931" y="123.32">Only create the vma</text><text fill="#000000" font-family="sans-serif" font-size="16" lengthAdjust="spacing" textLength="122" x="931" y="146.4881">area at first time</text><text fill="#000000" font-family="sans-serif" font-size="16" lengthAdjust="spacing" textLength="71" x="931" y="169.6561">vm_flags:</text><text fill="#000000" font-family="sans-serif" font-size="16" lengthAdjust="spacing" textLength="145" x="931" y="192.8242">rd wr mr mw me ac</text></g><!--entity mm_rb--><g id="elem_mm_rb"><rect fill="#F1F1F1" height="48.96" rx="2.5" ry="2.5" style="stroke:#181818;stroke-width:1.0;" width="89" x="331" y="126.76"/><text fill="#000000" font-family="sans-serif" font-size="20" lengthAdjust="spacing" textLength="69" x="341" y="159.96">mm_rb</text></g><!--link c1 to mm_struct--><!--reverse link mm_rb to vma--><g id="link_mm_rb_vma"><path d="M425.45,151.26 C485.39,151.26 588.37,151.26 664.96,151.26 " fill="none" id="mm_rb-backto-vma" style="stroke:#181818;stroke-width:1.0;"/><polygon fill="#181818" points="420.14,151.26,429.14,155.26,425.14,151.26,429.14,147.26,420.14,151.26" style="stroke:#181818;stroke-width:1.0;"/><text fill="#000000" font-family="sans-serif" font-size="16" lengthAdjust="spacing" textLength="103" x="500" y="145.82">add to rb tree</text></g><!--SRC=[dLDBIyGm4BxtLmnwsIqiR3ru43see9Vr0JukTIbZCks6Dab9eiig_dSdtLgwwa4CXJBVDzyyauRA0C62KzKgW5IEH53M9BvMfaM76iwjRgqX4-x2fY683cYgXdvpWVS4-5nOzbPl10VppZwpJfAxNobH6_8UikGZ6SblKTHOqV_4v-Za7vNpNUMr3JzoPeUxFgVEsVMOJTg-sBri2XgRneh95Be_SZXDshhD7g27Dkk3YrYXo60_E3IUuyP1vHsLWj_uGcji9zCja4Bz1HLjPSjo859urR_YAKYx6oDYdQUZYfSvnbF-SHmk0ek- -ZGTqJ4B5eqoTQzQ9jicXXLhNVZWNiJNikF96NJFoyx- -2xWWB2_YFVhqX6PllLudi9JUBmw7UmPdy580OqrHLIVmFN3OZ5Yk0FR-Z7UbsdYJhTtsPOnyo2wCSq61BVD3c55EroS1c20KZdFhq5f6YZEL3PO-QC1uMMk7MZ-rhnkGD4nP6INl6y-cqcxDlbAIKbcESk7eMrdrC_hcFlDkP0b705AsRt3PmWyfOIluIS0]--></g></svg>